<svg xmlns="http://www.w3.org/2000/svg" viewBox="0 0 1200 1200">
  <defs>
    <linearGradient id="sky" x1="0" y1="0" x2="1" y2="1">
      <stop offset="0%" stop-color="#06131f"/>
      <stop offset="45%" stop-color="#173856"/>
      <stop offset="100%" stop-color="#ff7a2f"/>
    </linearGradient>
    <radialGradient id="sun" cx="72%" cy="20%" r="46%">
      <stop offset="0%" stop-color="#ffe39a"/>
      <stop offset="40%" stop-color="#ffb357"/>
      <stop offset="100%" stop-color="#ffb357" stop-opacity="0"/>
    </radialGradient>
    <linearGradient id="beam1" x1="0" y1="0" x2="1" y2="1">
      <stop offset="0%" stop-color="#8cf7ff" stop-opacity="0.9"/>
      <stop offset="100%" stop-color="#8cf7ff" stop-opacity="0"/>
    </linearGradient>
    <linearGradient id="beam2" x1="1" y1="0" x2="0" y2="1">
      <stop offset="0%" stop-color="#ffe68c" stop-opacity="0.85"/>
      <stop offset="100%" stop-color="#ffe68c" stop-opacity="0"/>
    </linearGradient>
  </defs>
  <rect width="1200" height="1200" fill="url(#sky)"/>
  <circle cx="872" cy="224" r="312" fill="url(#sun)"/>

  <path d="M34 146 648 760l-94 94L0 300Z" fill="url(#beam1)" opacity=".75"/>
  <path d="M1016 104 486 624l72 72 642-510Z" fill="url(#beam2)" opacity=".72"/>

  <g opacity=".95">
    <circle cx="264" cy="216" r="5" fill="#fff8dc"/>
    <circle cx="326" cy="172" r="3" fill="#fff8dc"/>
    <circle cx="408" cy="250" r="4" fill="#fff8dc"/>
    <circle cx="532" cy="146" r="3" fill="#fff8dc"/>
    <circle cx="608" cy="224" r="4" fill="#fff8dc"/>
    <circle cx="144" cy="332" r="3" fill="#fff8dc"/>
  </g>

  <path d="M0 874c142-86 250-128 358-112 136 20 194 128 350 132 152 4 252-92 492-208v514H0Z" fill="#08111b"/>
  <path d="M0 986c168-42 306-28 434 34 150 72 244 108 390 76 112-24 210-78 376-120v224H0Z" fill="#10253b"/>

  <g transform="translate(176 332)">
    <rect x="0" y="0" width="220" height="420" rx="18" fill="#0b1420"/>
    <rect x="20" y="20" width="180" height="380" rx="12" fill="#11253c"/>
    <circle cx="110" cy="112" r="62" fill="#f5b34f"/>
    <path d="M42 274c52-72 96-108 136-108s76 32 118 96" fill="none" stroke="#8cf7ff" stroke-width="18" stroke-linecap="round"/>
    <path d="M46 342c44-30 90-44 136-40 40 2 78 18 116 40" fill="none" stroke="#f8e38e" stroke-width="12" stroke-linecap="round"/>
    <text x="110" y="366" fill="#f5f1e6" font-family="Georgia, serif" font-size="34" text-anchor="middle" letter-spacing="6">AURORA</text>
  </g>
</svg>
