<svg xmlns="http://www.w3.org/2000/svg" viewBox="0 0 1200 1200">
  <defs>
    <linearGradient id="bg" x1="0" y1="0" x2="1" y2="1">
      <stop offset="0%" stop-color="#050505"/>
      <stop offset="100%" stop-color="#31244a"/>
    </linearGradient>
  </defs>
  <rect width="1200" height="1200" fill="url(#bg)"/>
  <g stroke="#7c68d9" stroke-opacity="0.45" stroke-width="4">
    <path d="M120 80h960"/>
    <path d="M120 240h960"/>
    <path d="M120 400h960"/>
    <path d="M120 560h960"/>
    <path d="M120 720h960"/>
    <path d="M120 880h960"/>
    <path d="M120 1040h960"/>
    <path d="M120 80v960"/>
    <path d="M280 80v960"/>
    <path d="M440 80v960"/>
    <path d="M600 80v960"/>
    <path d="M760 80v960"/>
    <path d="M920 80v960"/>
    <path d="M1080 80v960"/>
  </g>
  <path d="M0 860c122-92 284-120 430-58s214 168 382 160c132-8 234-86 388-180v418H0Z" fill="#0c0c17"/>
  <circle cx="288" cy="270" r="120" fill="#f36d6d" fill-opacity="0.82"/>
  <circle cx="786" cy="640" r="190" fill="#61d7ea" fill-opacity="0.28"/>
</svg>
